<svg id="Layer_1" data-name="Layer 1" xmlns="http://www.w3.org/2000/svg" viewBox="0 0 199.91 215.15"><defs><style>.cls-1,.cls-2{fill:#fff;}.cls-2{font-size:50.62px;}.cls-2,.cls-4{font-family:Helvetica-Bold, Helvetica;font-weight:700;}.cls-3,.cls-4{fill:#941e81;}.cls-4{font-size:46.47px;}.cls-5{fill:none;stroke:#941e81;stroke-miterlimit:10;stroke-width:4px;}</style></defs><path class="cls-1" d="M92,94.62V70.44H82.16V57.73h9.76v6h6v25h6.3v-25h5.94v-6h9.81V70.42H110.1v24.2Z"/><text class="cls-2" transform="translate(36.04 151.61)">tanzu</text><path class="cls-1" d="M101,113.51a37.34,37.34,0,1,1,37.33-37.34A37.38,37.38,0,0,1,101,113.51Zm0-70.31a33,33,0,1,0,33,33A33,33,0,0,0,101,43.2Z"/><path class="cls-3" d="M97.79,93.07V70.88h-9V59.2h9v5.48h5.46v23H109v-23h5.45V59.22h9V70.86h-9V93.07Z"/><text class="cls-4" transform="translate(46.45 145.37)">tanzu</text><circle class="cls-5" cx="106.1" cy="76.14" r="32.27"/></svg>